<svg width="32" height="32" viewBox="0 0 32 32" fill="none" xmlns="http://www.w3.org/2000/svg">
  <rect width="32" height="32" rx="8" fill="#1DB954"/>
  <path d="M16 8C11.6 8 8 11.6 8 16C8 20.4 11.6 24 16 24C20.4 24 24 20.4 24 16C24 11.6 20.4 8 16 8ZM12 18.5C11.2 18.5 10.5 17.8 10.5 17C10.5 16.2 11.2 15.5 12 15.5C12.8 15.5 13.5 16.2 13.5 17C13.5 17.8 12.8 18.5 12 18.5ZM16 18.5C15.2 18.5 14.5 17.8 14.5 17C14.5 16.2 15.2 15.5 16 15.5C16.8 15.5 17.5 16.2 17.5 17C17.5 17.8 16.8 18.5 16 18.5ZM20 18.5C19.2 18.5 18.5 17.8 18.5 17C18.5 16.2 19.2 15.5 20 15.5C20.8 15.5 21.5 16.2 21.5 17C21.5 17.8 20.8 18.5 20 18.5Z" fill="white"/>
</svg>